<svg width="87" height="16" viewBox="0 0 87 16" fill="none" xmlns="http://www.w3.org/2000/svg">
<path d="M6.305 8.255C6.83367 8.437 7.24533 8.723 7.54 9.113C7.84333 9.49433 7.995 9.94067 7.995 10.452C7.995 11.0067 7.813 11.4877 7.449 11.895C7.085 12.3023 6.591 12.6143 5.967 12.831C5.35167 13.0477 4.67567 13.156 3.939 13.156C3.315 13.156 2.691 13.078 2.067 12.922C1.45167 12.766 0.866667 12.5277 0.312 12.207L0.962 10.699C1.36067 10.9417 1.79833 11.128 2.275 11.258C2.76033 11.3793 3.23267 11.44 3.692 11.44C4.316 11.44 4.83167 11.3273 5.239 11.102C5.655 10.8767 5.863 10.5603 5.863 10.153C5.863 9.815 5.72 9.55933 5.434 9.386C5.15667 9.21267 4.77533 9.126 4.29 9.126H2.067V7.54H4.134C4.55867 7.54 4.888 7.45333 5.122 7.28C5.36467 7.10667 5.486 6.86833 5.486 6.565C5.486 6.20967 5.31267 5.93233 4.966 5.733C4.628 5.53367 4.19033 5.434 3.653 5.434C3.25433 5.434 2.84267 5.49033 2.418 5.603C1.99333 5.707 1.59033 5.86733 1.209 6.084L0.572 4.446C1.534 3.952 2.574 3.705 3.692 3.705C4.40267 3.705 5.057 3.809 5.655 4.017C6.253 4.225 6.72967 4.52833 7.085 4.927C7.44033 5.32567 7.618 5.78933 7.618 6.318C7.618 6.75133 7.501 7.137 7.267 7.475C7.033 7.813 6.71233 8.073 6.305 8.255ZM15.8243 11.05H11.5993L10.7933 13H8.63525L12.6913 3.9H14.7713L18.8403 13H16.6303L15.8243 11.05ZM15.1613 9.451L13.7183 5.967L12.2753 9.451H15.1613ZM23.57 9.334H22.114V13H20.021V3.9H22.114V7.579H23.622L26.014 3.9H28.237L25.26 8.294L28.328 13H25.936L23.57 9.334ZM33.2536 3.9C34.0596 3.9 34.7573 4.03433 35.3466 4.303C35.9446 4.57167 36.4039 4.953 36.7246 5.447C37.0453 5.941 37.2056 6.526 37.2056 7.202C37.2056 7.86933 37.0453 8.45433 36.7246 8.957C36.4039 9.451 35.9446 9.83233 35.3466 10.101C34.7573 10.361 34.0596 10.491 33.2536 10.491H31.4206V13H29.3146V3.9H33.2536ZM33.1366 8.775C33.7693 8.775 34.2503 8.64067 34.5796 8.372C34.9089 8.09467 35.0736 7.70467 35.0736 7.202C35.0736 6.69067 34.9089 6.30067 34.5796 6.032C34.2503 5.75467 33.7693 5.616 33.1366 5.616H31.4206V8.775H33.1366ZM43.0019 6.89C44.1112 6.89 44.9605 7.137 45.5499 7.631C46.1479 8.125 46.4469 8.85733 46.4469 9.828C46.4469 10.8593 46.1175 11.648 45.4589 12.194C44.8089 12.7313 43.8902 13 42.7029 13H38.5949V3.9H40.6879V6.89H43.0019ZM42.5859 11.44C43.1319 11.44 43.5565 11.3057 43.8599 11.037C44.1719 10.7683 44.3279 10.3783 44.3279 9.867C44.3279 8.92233 43.7472 8.45 42.5859 8.45H40.6879V11.44H42.5859ZM47.6039 3.9H49.6969V13H47.6039V3.9ZM58.918 5.616H56.006V13H53.926V5.616H51.027V3.9H58.918V5.616ZM64.6474 6.89C65.7567 6.89 66.606 7.137 67.1954 7.631C67.7934 8.125 68.0924 8.85733 68.0924 9.828C68.0924 10.8593 67.763 11.648 67.1044 12.194C66.4544 12.7313 65.5357 13 64.3484 13H60.2404V3.9H62.3334V6.89H64.6474ZM64.2314 11.44C64.7774 11.44 65.202 11.3057 65.5054 11.037C65.8174 10.7683 65.9734 10.3783 65.9734 9.867C65.9734 8.92233 65.3927 8.45 64.2314 8.45H62.3334V11.44H64.2314Z" fill="#F5920B"/>
<path d="M83.812 13L81.615 9.841L79.457 13H77.039L80.406 8.372L77.208 3.9H79.6L81.693 6.851L83.747 3.9H86.022L82.85 8.294L86.243 13H83.812Z" fill="#F5920B"/>
</svg>
